PathFileType	4	(X/Y/Z)	D:\TRACE\spot_10-12-23\spot_body_motion_3_4-platform.trc
DataRate	CameraRate	NumFrames	NumMarkers	Units	OrigDataRate	OrigDataStartFrame	OrigNumFrames
100.00	100.00	      72	5	mm	100.00	5251	      7000
Frame#	Time	Left_Front			Right_Front			Left_Aft			Right_Aft			Post			
		X1	Y1	Z1	X2	Y2	Z2	X3	Y3	Z3	X4	Y4	Z4	X5	Y5	Z5	

5251	52.500	-763.65845	-21.72111	-647.65100	809.25940	-17.02221	-640.85535	-680.52344	24.46994	489.52280	736.79541	32.78748	575.14441	19.26983	701.81226	-996.26727	
5252	52.510	-763.57275	-21.60894	-647.63678	809.27789	-16.88519	-640.78070	-680.50244	24.32801	489.52664	736.84845	32.73169	575.18890	19.32862	702.10266	-995.78461	
5253	52.520	-763.46094	-21.51196	-647.62335	809.37628	-16.70101	-640.66968	-680.51685	24.22638	489.56522	736.85944	32.55918	575.28943	19.37428	702.35815	-995.60693	
5254	52.530	-763.37134	-21.25269	-647.56305	809.39935	-16.40395	-640.60883	-680.54242	24.09185	489.51816	736.87341	32.39648	575.35889	19.40804	702.70197	-995.32343	
5255	52.540	-763.33936	-20.96203	-647.48633	809.45886	-16.13952	-640.60474	-680.55634	23.95609	489.52228	736.91217	32.27254	575.40851	19.44401	703.05530	-995.06335	
5256	52.550	-763.32654	-20.79888	-647.40143	809.33972	-15.89851	-640.62585	-680.55835	23.86631	489.54980	736.91833	32.16118	575.44147	19.31726	703.29639	-994.92755	
5257	52.560	-763.23993	-20.63999	-647.40436	809.28131	-15.76350	-640.60846	-680.55811	23.73312	489.55371	736.87939	31.99869	575.47803	19.25999	703.59729	-994.80994	
5258	52.570	-763.35809	-20.36231	-647.27850	809.27362	-15.62504	-640.62152	-680.57642	23.61843	489.56674	736.75885	31.80336	575.52930	19.12307	703.80383	-994.65033	
5259	52.580	-763.35590	-20.17227	-647.24847	809.17120	-15.35215	-640.69299	-680.61914	23.48543	489.56842	736.67090	31.63231	575.59235	19.09990	704.07117	-994.44360	
5260	52.590	-763.48059	-19.91717	-647.22906	809.08252	-15.10713	-640.70728	-680.70166	23.41959	489.64795	736.57562	31.48748	575.68091	18.97361	704.45624	-994.25006	
5261	52.600	-763.57678	-19.77216	-647.22253	808.91040	-14.94738	-640.71802	-680.87689	23.32836	489.66336	736.46240	31.37737	575.70660	18.89072	704.74969	-994.12164	
5262	52.610	-763.57587	-19.91635	-647.20160	808.68671	-14.83466	-640.67230	-681.08203	23.17982	489.64777	736.28802	31.23485	575.77838	18.68568	705.03326	-993.83545	
5263	52.620	-763.86322	-19.62052	-647.12396	808.44043	-14.71336	-640.63422	-681.24982	23.07283	489.67551	736.08594	31.06452	575.88043	18.69732	705.26416	-993.55438	
5264	52.630	-764.01385	-19.50444	-647.13928	808.42883	-14.60052	-640.44745	-681.21289	22.92871	489.67572	735.78027	30.92369	575.96259	18.64810	705.46582	-993.35461	
5265	52.640	-764.16809	-19.33412	-647.15155	808.15466	-14.44741	-640.48999	-681.44336	22.88604	489.73016	735.51691	30.85867	576.03210	18.51859	705.72302	-993.08374	
5266	52.650	-764.27368	-19.14660	-647.12451	808.06042	-14.31080	-640.41919	-681.58618	22.82895	489.77658	735.37512	30.74888	576.05914	18.46484	705.90210	-992.79126	
5267	52.660	-764.31268	-18.98491	-647.11212	807.92761	-14.17917	-640.39307	-681.66656	22.66722	489.87378	735.25177	30.63120	576.04309	18.34556	706.05920	-992.54761	
5268	52.670	-764.49237	-18.94286	-647.11487	807.80762	-14.10718	-640.33734	-681.83020	22.60707	489.92325	735.13074	30.50362	576.06036	18.26036	706.17242	-992.33820	
5269	52.680	-764.60547	-18.87330	-647.11951	807.46619	-13.94713	-640.35919	-681.94366	22.53711	489.98566	735.02356	30.36865	576.07574	18.14783	706.29572	-992.21014	
5270	52.690	-764.99805	-18.70035	-647.11292	807.31866	-13.77286	-640.25574	-682.03900	22.46326	490.06705	734.88336	30.32028	576.14087	17.91612	706.42871	-992.15588	
5271	52.700	-765.18170	-18.37305	-647.06677	807.16620	-13.65407	-640.18811	-682.21844	22.41067	490.04214	734.59009	30.23457	576.22131	17.65317	706.61060	-992.10773	
5272	52.710	-765.50269	-18.14226	-646.94159	807.05658	-13.50474	-640.17834	-682.29956	22.32319	490.11041	735.02954	30.36405	576.15576	17.36811	706.82513	-991.97601	
5273	52.720	-765.87543	-18.04639	-646.93280	806.97772	-13.49711	-640.19415	-682.49976	22.26503	490.16370	734.37170	30.08754	576.33936	17.16596	706.96075	-991.98065	
5274	52.730	-766.05579	-17.84120	-646.86310	806.89001	-13.39456	-640.17468	-682.66943	22.13592	490.17908	734.16913	29.97936	576.38525	16.99735	707.04773	-991.94025	
5275	52.740	-765.98334	-18.13631	-646.94672	806.86932	-13.32983	-640.09827	-682.92224	22.06943	490.23801	733.99030	29.91629	576.47717	16.81252	707.21558	-991.87286	
5276	52.750	-765.75232	-18.25714	-647.16168	806.73267	-13.22787	-640.06006	-683.13861	22.05034	490.28928	733.77332	29.90072	576.56219	16.56512	707.32263	-991.82745	
5277	52.760	-766.28912	-17.98567	-646.89502	806.46716	-13.17277	-640.16150	-683.30988	21.98633	490.29898	733.38574	29.89193	576.71234	16.33623	707.46558	-991.70563	
5278	52.770	-766.00995	-18.20276	-647.17517	806.37970	-13.10789	-640.06512	-683.44861	21.92548	490.33316	733.17151	29.79056	576.70642	16.14970	707.58063	-991.54169	
5279	52.780	-766.46283	-17.99515	-646.96350	806.12878	-13.01794	-640.08105	-683.69238	21.82557	490.29413	732.88239	29.62000	576.67627	16.00522	707.67853	-991.40961	
5280	52.790	-766.67139	-17.85714	-646.87085	805.90088	-12.96256	-640.07056	-683.89880	21.82494	490.30106	732.62299	29.58126	576.69324	15.82321	707.76038	-991.25873	
5281	52.800	-766.85706	-17.82804	-646.89752	805.51971	-12.84795	-640.11389	-684.04663	21.77922	490.29684	732.13300	29.42172	576.69861	15.65314	707.87683	-991.14557	
5282	52.810	-767.07959	-17.63746	-646.88977	805.24432	-12.76521	-640.06903	-684.41779	21.82052	490.34714	732.05927	29.41105	576.69525	15.61297	707.96051	-991.01898	
5283	52.820	-767.10571	-17.69460	-646.96130	804.93286	-12.70004	-640.04791	-684.59906	21.81154	490.38214	731.98120	29.55177	576.75507	15.42123	708.03326	-990.94318	
5284	52.830	-767.37817	-17.60575	-646.91669	804.74023	-12.69506	-640.01770	-684.75201	21.80276	490.38705	731.75433	29.48958	576.72534	15.25724	708.07300	-990.89008	
5285	52.840	-767.72314	-17.54782	-646.87762	804.51416	-12.71147	-640.05426	-684.87714	21.73228	490.42105	731.30481	29.39933	576.74036	15.05264	708.12396	-990.76978	
5286	52.850	-768.20972	-17.39199	-646.75372	804.32056	-12.68209	-640.04706	-685.19147	21.70750	490.38705	732.08258	29.53547	576.50800	14.83067	708.13354	-990.72186	
5287	52.860	-768.58209	-17.21236	-646.67004	804.12939	-12.59450	-640.00543	-685.41583	21.65736	490.36154	731.90454	29.56276	576.53424	14.62030	708.14581	-990.69238	
5288	52.870	-768.72961	-17.23776	-646.70642	804.11993	-12.56315	-639.98993	-685.72369	21.68632	490.32104	731.75171	29.50770	576.55243	14.34932	708.17432	-990.69183	
5289	52.880	-768.98621	-17.19452	-646.72504	803.86005	-12.44024	-640.04150	-685.85968	21.57598	490.34940	731.62439	29.45912	576.56909	14.12639	708.26202	-990.66724	
5290	52.890	-768.96021	-17.31296	-646.80804	803.82452	-12.48381	-639.99762	-686.01770	21.53716	490.38901	731.43756	29.46038	576.59656	13.79499	708.27319	-990.80286	
5291	52.900	-769.12524	-17.48642	-646.88947	803.60095	-12.52309	-639.97729	-686.23560	21.52275	490.41122	731.15704	29.40657	576.56134	13.53210	708.29156	-990.73761	
5292	52.910	-769.41931	-17.39359	-646.89551	803.31305	-12.52280	-640.01764	-686.49646	21.57860	490.35733	730.81226	29.41006	576.56323	13.12953	708.36609	-990.73083	
5293	52.920	-769.58508	-17.47829	-646.89325	803.09711	-12.47010	-639.98376	-686.67365	21.57309	490.41299	730.53406	29.39548	576.54901	12.85827	708.36908	-990.75397	
5294	52.930	-769.84497	-17.39128	-646.88568	802.82178	-12.46595	-639.90723	-686.91211	21.67984	490.39337	730.20844	29.37422	576.46796	12.65093	708.43823	-990.71625	
5295	52.940	-770.09290	-17.43635	-646.88568	802.40723	-12.48604	-639.96130	-687.10498	21.65913	490.36090	730.00427	29.37707	576.45709	12.52295	708.37524	-990.66168	
5296	52.950	-770.24207	-17.41318	-646.92609	802.17938	-12.35691	-639.94983	-687.31287	21.57475	490.38925	730.20959	29.15802	575.91547	12.37360	708.38391	-990.63696	
5297	52.960	-770.55841	-17.23711	-646.79938	802.01422	-12.47089	-639.91510	-687.50519	21.51251	490.33948	729.94135	29.15432	576.06201	12.25125	708.46393	-990.64148	
5298	52.970	-770.67267	-17.29770	-646.80389	801.80212	-12.46511	-639.91754	-687.82428	21.54849	490.36575	729.71063	29.23460	576.13794	12.10789	708.43610	-990.61536	
5299	52.980	-770.57495	-17.51339	-646.83069	801.51251	-12.53291	-639.90900	-688.07843	21.52603	490.42053	729.45544	29.22946	576.23846	11.96018	708.52301	-990.59174	
5300	52.990	-770.80859	-17.45150	-646.76526	801.43573	-12.49726	-639.85608	-688.27069	21.59160	490.42111	729.30823	29.29926	576.27307	11.73208	708.58124	-990.53973	
5301	53.000	-771.01019	-17.42858	-646.76245	801.31989	-12.57249	-639.86505	-688.51843	21.54546	490.41064	729.15045	29.31169	576.29907	11.58082	708.60895	-990.50024	
5302	53.010	-771.32825	-17.20879	-646.72742	801.22968	-12.58919	-639.82715	-688.60815	21.48944	490.45599	728.91351	29.30695	576.34576	11.41977	708.64764	-990.43842	
5303	53.020	-771.67944	-17.26048	-646.70624	801.08344	-12.64385	-639.84003	-688.73145	21.50579	490.44705	728.70526	29.30135	576.38568	11.22190	708.66260	-990.48059	
5304	53.030	-771.90619	-17.22935	-646.73828	800.90320	-12.62101	-639.84613	-688.94562	21.56994	490.43597	728.49554	29.30224	576.37451	11.00199	708.69037	-990.50647	
5305	53.040	-772.17542	-17.11499	-646.69049	800.78308	-12.62454	-639.80383	-689.16284	21.66281	490.46091	728.33948	29.30972	576.41925	10.70697	708.69080	-990.59241	
5306	53.050	-772.35034	-17.08175	-646.74756	800.56567	-12.63108	-639.77850	-689.23907	21.63215	490.53268	728.19678	29.30996	576.43805	10.61568	708.66168	-990.66162	
5307	53.060	-772.28149	-17.14467	-646.84302	800.22760	-12.63548	-639.85785	-689.46393	21.63277	490.48334	728.04797	29.30971	576.45190	10.43478	708.66309	-990.70068	
5308	53.070	-772.43787	-17.27226	-646.82123	800.01599	-12.67145	-639.90515	-689.65063	21.59715	490.44519	727.91064	29.29960	576.48126	10.31813	708.63495	-990.71143	
5309	53.080	-772.68188	-17.18285	-646.87250	799.94312	-12.69821	-639.90607	-689.86267	21.53899	490.41412	727.70404	29.29545	576.46094	10.16513	708.60547	-990.73865	
5310	53.090	-772.84711	-17.21953	-646.81238	799.78766	-12.73191	-639.90411	-690.01520	21.55545	490.41885	727.45551	29.23528	576.43262	9.95189	708.64093	-990.82050	
5311	53.100	-773.02911	-17.19790	-646.81348	799.63660	-12.75015	-639.89923	-690.17896	21.63578	490.39664	727.31012	29.27049	576.47473	9.77247	708.61127	-990.87732	
5312	53.110	-773.11670	-17.26707	-646.78967	799.46948	-12.74938	-639.97986	-690.28143	21.68627	490.44339	727.06854	29.27113	576.45593	9.53341	708.56793	-990.83020	
5313	53.120	-773.20697	-17.36304	-646.81287	799.37671	-12.82356	-639.97546	-690.39960	21.61940	490.42001	726.90204	29.25315	576.41559	9.40978	708.54688	-990.91595	
5314	53.130	-773.46429	-17.34731	-646.79889	799.18158	-12.82833	-640.08063	-690.51184	21.63535	490.37930	726.79480	29.26342	576.41095	9.26762	708.52448	-990.89209	
5315	53.140	-773.59052	-17.42691	-646.77570	798.98676	-12.83310	-640.06885	-690.61914	21.62063	490.34329	726.64398	29.27271	576.39984	9.09099	708.45795	-990.82184	
5316	53.150	-773.75690	-17.44430	-646.78992	798.80334	-12.87107	-640.17108	-690.77435	21.69858	490.43930	726.54987	29.35662	576.42188	8.98662	708.41150	-990.77698	
5317	53.160	-773.79156	-17.50938	-646.82977	798.75891	-12.87498	-640.07343	-690.81934	21.68826	490.37772	726.45984	29.39058	576.39325	8.91457	708.30414	-990.76855	
5318	53.170	-774.04108	-17.48023	-646.80811	798.59344	-12.91374	-640.17883	-690.88013	21.71662	490.39212	726.33563	29.43119	576.40320	8.77827	708.24133	-990.81769	
5319	53.180	-774.19305	-17.45483	-646.79712	798.63141	-12.95934	-640.08270	-690.92242	21.69003	490.38876	726.26385	29.46007	576.40521	8.98089	708.03174	-990.85077	
5320	53.190	-774.19788	-17.56947	-646.84729	798.49213	-12.99500	-640.11871	-690.97388	21.65434	490.36472	726.18768	29.50027	576.40338	8.45358	708.05292	-990.94318	
5321	53.200	-774.27063	-17.60345	-646.85590	798.30664	-13.02773	-640.14099	-691.05151	21.68773	490.32169	726.11133	29.50152	576.41748	8.43513	708.02515	-991.08954	
5322	53.210	-774.34143	-17.54818	-646.81439	798.23016	-13.00360	-640.14478	-691.18219	21.68812	490.33487	726.02148	29.54962	576.40875	8.32242	707.99347	-991.22198	
